<svg xmlns="http://www.w3.org/2000/svg" width="2231" height="772.188" viewBox="0 0 2231 772.188"><g transform="translate(298.75 -1969.162)" opacity="0.35"><g transform="translate(-298.75 2059.162)" fill="none" opacity="0.131"><path d="M732.967,0a122,122,0,0,1,95.667,46.291L996.085,257.885a122,122,0,0,1,0,151.418L828.634,620.9a122,122,0,0,1-95.667,46.291H323.033A122,122,0,0,1,227.366,620.9L59.915,409.3a122,122,0,0,1,0-151.418L227.366,46.291A122,122,0,0,1,323.033,0Z" stroke="none"></path><path d="M 323.0331420898438 1 C 313.8875122070312 1 304.7362670898438 2.04150390625 295.833251953125 4.09564208984375 C 287.0387573242188 6.124755859375 278.4581298828125 9.14788818359375 270.3296508789062 13.08099365234375 C 262.2012329101562 17.01409912109375 254.5057373046875 21.86663818359375 247.4571533203125 27.50372314453125 C 240.3214721679688 33.21026611328125 233.8257446289062 39.739990234375 228.150390625 46.91162109375 L 60.6988525390625 258.50537109375 C 52.14752197265625 269.3110046386719 45.55712890625 281.3695068359375 41.11090087890625 294.3460083007812 C 36.77838134765625 306.9906311035156 34.58160400390625 320.1954956054688 34.58160400390625 333.59375 C 34.58160400390625 346.9920043945312 36.77838134765625 360.1968688964844 41.11090087890625 372.8414916992188 C 45.55712890625 385.8179931640625 52.14752197265625 397.8764953613281 60.6988525390625 408.68212890625 L 228.1502685546875 620.27587890625 C 233.8257446289062 627.447509765625 240.3213500976562 633.9771118164062 247.4569702148438 639.6837768554688 C 254.505615234375 645.3207397460938 262.2011108398438 650.1732788085938 270.3295288085938 654.1065063476562 C 278.4580078125 658.0396118164062 287.0386352539062 661.062744140625 295.8331298828125 663.0918579101562 C 304.7361450195312 665.14599609375 313.8873901367188 666.1875 323.0330200195312 666.1875 L 732.967041015625 666.1875 C 742.1126098632812 666.1875 751.263916015625 665.14599609375 760.1668701171875 663.0918579101562 C 768.9613647460938 661.062744140625 777.5419921875 658.0396118164062 785.67041015625 654.1065063476562 C 793.7988891601562 650.1732788085938 801.4942626953125 645.3207397460938 808.54296875 639.6837768554688 C 815.678466796875 633.9771118164062 822.1742553710938 627.447509765625 827.8497314453125 620.27587890625 L 995.3011474609375 408.68212890625 C 1003.852478027344 397.8764953613281 1010.44287109375 385.8179931640625 1014.889099121094 372.8414916992188 C 1019.221618652344 360.1968688964844 1021.418395996094 346.9920043945312 1021.418395996094 333.59375 C 1021.418395996094 320.1954956054688 1019.221618652344 306.9906311035156 1014.889099121094 294.3460083007812 C 1010.44287109375 281.3695068359375 1003.852478027344 269.3110046386719 995.3011474609375 258.50537109375 L 827.8497314453125 46.91162109375 C 822.1742553710938 39.739990234375 815.678466796875 33.21026611328125 808.54296875 27.50372314453125 C 801.4942626953125 21.86663818359375 793.7987060546875 17.01409912109375 785.67041015625 13.08099365234375 C 777.5419921875 9.14788818359375 768.9612426757812 6.124755859375 760.166748046875 4.09564208984375 C 751.263916015625 2.04150390625 742.1124877929688 1 732.967041015625 1 L 323.0331420898438 1 M 323.0331420898438 0 L 732.967041015625 0 C 770.25439453125 0 805.4945068359375 17.0518798828125 828.6339111328125 46.291015625 L 996.0852661132812 257.8847351074219 C 1031.196166992188 302.2512512207031 1031.196166992188 364.9362487792969 996.0852661132812 409.3027648925781 L 828.6339111328125 620.896484375 C 805.4945068359375 650.135498046875 770.2545166015625 667.1875 732.967041015625 667.1875 L 323.0330200195312 667.1875 C 285.7454833984375 667.1875 250.50537109375 650.135498046875 227.3661499023438 620.896484375 L 59.91473388671875 409.3027648925781 C 24.8038330078125 364.9362487792969 24.8038330078125 302.2512512207031 59.91473388671875 257.8847351074219 L 227.3662719726562 46.291015625 C 250.5054931640625 17.0518798828125 285.74560546875 0 323.0331420898438 0 Z" stroke="none" fill="#000"></path></g><g transform="translate(487.25 2074.162)" fill="none" opacity="0.131"><path d="M732.967,0a122,122,0,0,1,95.667,46.291L996.085,257.885a122,122,0,0,1,0,151.418L828.634,620.9a122,122,0,0,1-95.667,46.291H323.033A122,122,0,0,1,227.366,620.9L59.915,409.3a122,122,0,0,1,0-151.418L227.366,46.291A122,122,0,0,1,323.033,0Z" stroke="none"></path><path d="M 323.0331420898438 1 C 313.8875122070312 1 304.7362670898438 2.04150390625 295.833251953125 4.09564208984375 C 287.0387573242188 6.124755859375 278.4581298828125 9.14788818359375 270.3296508789062 13.08099365234375 C 262.2012329101562 17.01409912109375 254.5057373046875 21.86663818359375 247.4571533203125 27.50372314453125 C 240.3214721679688 33.21026611328125 233.8257446289062 39.739990234375 228.150390625 46.91162109375 L 60.6988525390625 258.50537109375 C 52.14752197265625 269.3110046386719 45.55712890625 281.3695068359375 41.11090087890625 294.3460083007812 C 36.77838134765625 306.9906311035156 34.58160400390625 320.1954956054688 34.58160400390625 333.59375 C 34.58160400390625 346.9920043945312 36.77838134765625 360.1968688964844 41.11090087890625 372.8414916992188 C 45.55712890625 385.8179931640625 52.14752197265625 397.8764953613281 60.6988525390625 408.68212890625 L 228.1502685546875 620.27587890625 C 233.8257446289062 627.447509765625 240.3213500976562 633.9771118164062 247.4569702148438 639.6837768554688 C 254.505615234375 645.3207397460938 262.2011108398438 650.1732788085938 270.3295288085938 654.1065063476562 C 278.4580078125 658.0396118164062 287.0386352539062 661.062744140625 295.8331298828125 663.0918579101562 C 304.7361450195312 665.14599609375 313.8873901367188 666.1875 323.0330200195312 666.1875 L 732.967041015625 666.1875 C 742.1126098632812 666.1875 751.263916015625 665.14599609375 760.1668701171875 663.0918579101562 C 768.9613647460938 661.062744140625 777.5419921875 658.0396118164062 785.67041015625 654.1065063476562 C 793.7988891601562 650.1732788085938 801.4942626953125 645.3207397460938 808.54296875 639.6837768554688 C 815.678466796875 633.9771118164062 822.1742553710938 627.447509765625 827.8497314453125 620.27587890625 L 995.3011474609375 408.68212890625 C 1003.852478027344 397.8764953613281 1010.44287109375 385.8179931640625 1014.889099121094 372.8414916992188 C 1019.221618652344 360.1968688964844 1021.418395996094 346.9920043945312 1021.418395996094 333.59375 C 1021.418395996094 320.1954956054688 1019.221618652344 306.9906311035156 1014.889099121094 294.3460083007812 C 1010.44287109375 281.3695068359375 1003.852478027344 269.3110046386719 995.3011474609375 258.50537109375 L 827.8497314453125 46.91162109375 C 822.1742553710938 39.739990234375 815.678466796875 33.21026611328125 808.54296875 27.50372314453125 C 801.4942626953125 21.86663818359375 793.7987060546875 17.01409912109375 785.67041015625 13.08099365234375 C 777.5419921875 9.14788818359375 768.9612426757812 6.124755859375 760.166748046875 4.09564208984375 C 751.263916015625 2.04150390625 742.1124877929688 1 732.967041015625 1 L 323.0331420898438 1 M 323.0331420898438 0 L 732.967041015625 0 C 770.25439453125 0 805.4945068359375 17.0518798828125 828.6339111328125 46.291015625 L 996.0852661132812 257.8847351074219 C 1031.196166992188 302.2512512207031 1031.196166992188 364.9362487792969 996.0852661132812 409.3027648925781 L 828.6339111328125 620.896484375 C 805.4945068359375 650.135498046875 770.2545166015625 667.1875 732.967041015625 667.1875 L 323.0330200195312 667.1875 C 285.7454833984375 667.1875 250.50537109375 650.135498046875 227.3661499023438 620.896484375 L 59.91473388671875 409.3027648925781 C 24.8038330078125 364.9362487792969 24.8038330078125 302.2512512207031 59.91473388671875 257.8847351074219 L 227.3662719726562 46.291015625 C 250.5054931640625 17.0518798828125 285.74560546875 0 323.0331420898438 0 Z" stroke="none" fill="#000"></path></g><g transform="translate(876.25 1969.162)" fill="none" opacity="0.131"><path d="M732.967,0a122,122,0,0,1,95.667,46.291L996.085,257.885a122,122,0,0,1,0,151.418L828.634,620.9a122,122,0,0,1-95.667,46.291H323.033A122,122,0,0,1,227.366,620.9L59.915,409.3a122,122,0,0,1,0-151.418L227.366,46.291A122,122,0,0,1,323.033,0Z" stroke="none"></path><path d="M 323.0331420898438 1 C 313.8875122070312 1 304.7362670898438 2.04150390625 295.833251953125 4.09564208984375 C 287.0387573242188 6.124755859375 278.4581298828125 9.14788818359375 270.3296508789062 13.08099365234375 C 262.2012329101562 17.01409912109375 254.5057373046875 21.86663818359375 247.4571533203125 27.50372314453125 C 240.3214721679688 33.21026611328125 233.8257446289062 39.739990234375 228.150390625 46.91162109375 L 60.6988525390625 258.50537109375 C 52.14752197265625 269.3110046386719 45.55712890625 281.3695068359375 41.11090087890625 294.3460083007812 C 36.77838134765625 306.9906311035156 34.58160400390625 320.1954956054688 34.58160400390625 333.59375 C 34.58160400390625 346.9920043945312 36.77838134765625 360.1968688964844 41.11090087890625 372.8414916992188 C 45.55712890625 385.8179931640625 52.14752197265625 397.8764953613281 60.6988525390625 408.68212890625 L 228.1502685546875 620.27587890625 C 233.8257446289062 627.447509765625 240.3213500976562 633.9771118164062 247.4569702148438 639.6837768554688 C 254.505615234375 645.3207397460938 262.2011108398438 650.1732788085938 270.3295288085938 654.1065063476562 C 278.4580078125 658.0396118164062 287.0386352539062 661.062744140625 295.8331298828125 663.0918579101562 C 304.7361450195312 665.14599609375 313.8873901367188 666.1875 323.0330200195312 666.1875 L 732.967041015625 666.1875 C 742.1126098632812 666.1875 751.263916015625 665.14599609375 760.1668701171875 663.0918579101562 C 768.9613647460938 661.062744140625 777.5419921875 658.0396118164062 785.67041015625 654.1065063476562 C 793.7988891601562 650.1732788085938 801.4942626953125 645.3207397460938 808.54296875 639.6837768554688 C 815.678466796875 633.9771118164062 822.1742553710938 627.447509765625 827.8497314453125 620.27587890625 L 995.3011474609375 408.68212890625 C 1003.852478027344 397.8764953613281 1010.44287109375 385.8179931640625 1014.889099121094 372.8414916992188 C 1019.221618652344 360.1968688964844 1021.418395996094 346.9920043945312 1021.418395996094 333.59375 C 1021.418395996094 320.1954956054688 1019.221618652344 306.9906311035156 1014.889099121094 294.3460083007812 C 1010.44287109375 281.3695068359375 1003.852478027344 269.3110046386719 995.3011474609375 258.50537109375 L 827.8497314453125 46.91162109375 C 822.1742553710938 39.739990234375 815.678466796875 33.21026611328125 808.54296875 27.50372314453125 C 801.4942626953125 21.86663818359375 793.7987060546875 17.01409912109375 785.67041015625 13.08099365234375 C 777.5419921875 9.14788818359375 768.9612426757812 6.124755859375 760.166748046875 4.09564208984375 C 751.263916015625 2.04150390625 742.1124877929688 1 732.967041015625 1 L 323.0331420898438 1 M 323.0331420898438 0 L 732.967041015625 0 C 770.25439453125 0 805.4945068359375 17.0518798828125 828.6339111328125 46.291015625 L 996.0852661132812 257.8847351074219 C 1031.196166992188 302.2512512207031 1031.196166992188 364.9362487792969 996.0852661132812 409.3027648925781 L 828.6339111328125 620.896484375 C 805.4945068359375 650.135498046875 770.2545166015625 667.1875 732.967041015625 667.1875 L 323.0330200195312 667.1875 C 285.7454833984375 667.1875 250.50537109375 650.135498046875 227.3661499023438 620.896484375 L 59.91473388671875 409.3027648925781 C 24.8038330078125 364.9362487792969 24.8038330078125 302.2512512207031 59.91473388671875 257.8847351074219 L 227.3662719726562 46.291015625 C 250.5054931640625 17.0518798828125 285.74560546875 0 323.0331420898438 0 Z" stroke="none" fill="#000"></path></g></g></svg>