<svg xmlns="http://www.w3.org/2000/svg" xmlns:xlink="http://www.w3.org/1999/xlink" width="63" height="17.304" viewBox="0 0 63 17.304"><defs><linearGradient id="a" x1="0.018" y1="0.5" x2="1.017" y2="0.65" gradientUnits="objectBoundingBox"><stop offset="0" stop-color="#caa9d3"></stop><stop offset="0.527" stop-color="#828ed6"></stop><stop offset="1" stop-color="#b7d6ef"></stop></linearGradient></defs><g transform="translate(-1057 -19579.697)"><rect width="18" height="17.304" rx="5" transform="translate(1057 19579.697)" opacity="0.191" fill="url(#a)"></rect><rect width="18" height="17.304" rx="5" transform="translate(1079 19579.697)" opacity="0.191" fill="url(#a)"></rect><rect width="18" height="17.304" rx="5" transform="translate(1102 19579.697)" opacity="0.191" fill="url(#a)"></rect><path d="M-2.82,0h1.55V-4.53L1.16,0H2.82V-7H1.27v4.53L-1.16-7H-2.82Z" transform="translate(1066.618 19591.627)" stroke="rgba(0,0,0,0)" stroke-miterlimit="10" stroke-width="1" fill="url(#a)"></path><path d="M-2.1,0H2.18V-1.3H-.48V-2.84H2.18V-4.11H-.48V-5.7H2.18V-7H-2.1Z" transform="translate(1088 19592)" stroke="rgba(0,0,0,0)" stroke-miterlimit="10" stroke-width="1" fill="url(#a)"></path><path d="M-2.71,0h1.32L0-4.4,1.39,0H2.71L5.18-7H3.48L2.02-2.35.63-7H-.63L-2.02-2.35-3.48-7h-1.7Z" transform="translate(1111.343 19592.406)" stroke="rgba(0,0,0,0)" stroke-miterlimit="10" stroke-width="1" fill="url(#a)"></path></g></svg>